#!OML:ASF F:\VICON\USERDATA\INSTALL\Justin_Nancy\Justin_Nancy.ASF
:FULLY-SPECIFIED
:DEGREES
95
root 12.928 17.5113 -12.7987 1.28213 5.34132 3.27413
lowerback 6.25483 -2.79399 -3.94382
upperback -0.164522 -3.92502 2.51788
thorax -3.23295 -1.87149 5.1692
lowerneck -17.9424 -3.67571 -9.91208
upperneck 23.7772 -3.56248 4.96036
head 10.9299 -1.92505 2.93611
rclavicle -3.0265e-014 -1.51076e-014
rhumerus -36.0213 -22.6712 -73.397
rradius 24.4529
rwrist 13.6111
rhand -13.2312 8.36283
rfingers 7.12502
rthumb 12.8703 -21.2203
lclavicle -3.0265e-014 -1.51076e-014
lhumerus -22.9719 8.48424 86.4578
lradius 30.2853
lwrist -9.05017
lhand -14.9612 25.963
lfingers 7.12502
lthumb 11.2022 55.644
rfemur -22.3984 2.59951 22.4256
rtibia 22.2745
rfoot 1.08215 -5.60548
rtoes 9.42439
lfemur 4.88134 -0.639782 -26.3268
ltibia 32.4561
lfoot 0.549386 -14.4463
ltoes -7.22427
96
root 12.9204 17.5289 -12.6491 1.19952 5.42565 3.18703
lowerback 6.20885 -2.71527 -3.88754
upperback -0.0696069 -3.81457 2.49923
thorax -3.12619 -1.82256 5.10281
lowerneck -17.751 -3.79272 -9.84717
upperneck 23.5173 -3.76887 4.98904
head 10.8132 -2.00769 2.90201
rclavicle 3.80176e-014 -2.14687e-014
rhumerus -36.0376 -22.7446 -73.565
rradius 24.6627
rwrist 13.4873
rhand -12.7846 8.67071
rfingers 7.12502
rthumb 13.3008 -20.8848
lclavicle 3.80176e-014 -2.14687e-014
lhumerus -23.0796 8.79993 86.4365
lradius 30.0352
lwrist -9.1858
lhand -14.6461 25.0707
lfingers 7.12502
lthumb 11.5061 54.7349
rfemur -21.8197 2.84516 22.571
rtibia 22.4263
rfoot 0.553332 -5.94726
rtoes 10.9543
lfemur 3.9693 -0.540193 -25.8305
ltibia 34.185
lfoot 3.82934 -15.0122
ltoes -6.17278
97
root 12.9186 17.5475 -12.5065 1.17199 5.38842 3.1073
lowerback 6.08931 -2.60896 -3.82436
upperback 0.00990311 -3.66465 2.48653
thorax -2.99848 -1.75422 5.03226
lowerneck -17.5921 -3.86593 -9.7353
upperneck 23.2955 -3.91935 5.0011
head 10.7109 -2.06333 2.86324
rclavicle -8.01599e-014 4.53229e-014
rhumerus -35.8743 -22.9564 -73.6183
rradius 24.5997
rwrist 13.5409
rhand -12.5038 9.12749
rfingers 7.12502
rthumb 13.5715 -20.4102
lclavicle -8.01599e-014 4.53229e-014
lhumerus -23.203 9.10135 86.4286
lradius 29.7723
lwrist -9.49163
lhand -14.0109 24.9749
lfingers 7.12502
lthumb 12.1186 54.6039
rfemur -21.2908 2.76228 22.7693
rtibia 22.4654
rfoot -0.0521531 -5.70902
rtoes 13.1986
lfemur 3.11461 -0.416678 -25.3901
ltibia 35.8515
lfoot 6.36402 -15.6687
ltoes -7.65303
98
root 12.9214 17.5824 -12.3599 1.05159 5.59216 2.9518
lowerback 6.1057 -2.6102 -3.54652
upperback -0.00864799 -3.64748 2.46718
thorax -3.04721 -1.74792 4.8558
lowerneck -17.1866 -3.861 -9.7349
upperneck 23.1457 -3.97332 5.08405
head 10.584 -2.08128 2.88665
rclavicle 1.35671e-014 -1.03368e-014
rhumerus -35.9649 -23.1087 -73.5101
rradius 24.4747
rwrist 13.8113
rhand -11.9978 9.51464
rfingers 7.12502
rthumb 14.0591 -19.9898
lclavicle 1.35671e-014 -1.03368e-014
lhumerus -23.5854 9.30949 86.3942
lradius 29.5636
lwrist -9.76463
lhand -13.8619 26.3852
lfingers 7.12502
lthumb 12.2623 56.0057
rfemur -20.4872 2.33457 23.0238
rtibia 22.188
rfoot -0.0877 -5.2029
rtoes 13.4101
lfemur 2.30903 -0.523353 -24.9092
ltibia 37.535
lfoot 8.46815 -16.7073
ltoes -12.6135
99
root 12.9212 17.6148 -12.2147 0.910185 5.74044 2.78942
lowerback 6.20201 -2.62313 -3.36684
upperback -0.0555783 -3.65281 2.50953
thorax -3.15766 -1.749 4.8069
lowerneck -16.8879 -3.82836 -9.88544
upperneck 23.2125 -3.96811 5.2738
head 10.558 -2.07486 2.98507
rclavicle 2.66371e-014 -7.15625e-015
rhumerus -36.0862 -22.7517 -73.5226
rradius 24.379
rwrist 13.7057
rhand -11.7117 10.4338
rfingers 7.12502
rthumb 14.3348 -19.0513
lclavicle 2.66371e-014 -7.15625e-015
lhumerus -23.9478 9.55288 86.3707
lradius 29.308
lwrist -9.96736
lhand -13.9683 26.3623
lfingers 7.12502
lthumb 12.1596 55.9889
rfemur -19.4859 2.03953 23.2568
rtibia 21.5284
rfoot 0.219078 -4.76863
rtoes 9.51212
lfemur 1.36033 -0.675443 -24.4694
ltibia 39.3394
lfoot 10.557 -17.9882
ltoes -15.7636
100
root 12.9214 17.6309 -12.0701 0.837495 5.64309 2.30771
lowerback 6.14732 -2.53002 -2.95957
upperback -0.0156991 -3.49212 2.68249
thorax -3.11587 -1.67586 4.74082
lowerneck -17.0154 -3.82493 -9.8862
upperneck 23.276 -3.96641 5.33259
head 10.6065 -2.06607 3.00692
rclavicle 4.70126e-014 -2.78299e-014
rhumerus -35.8899 -22.2441 -73.693
rradius 24.2223
rwrist 13.6194
rhand -11.8408 11.6075
rfingers 7.12502
rthumb 14.2104 -17.8864
lclavicle 4.70126e-014 -2.78299e-014
lhumerus -24.0317 9.63041 86.5209
lradius 28.9199
lwrist -10.0053
lhand -14.2435 22.3885
lfingers 7.12502
lthumb 11.8943 52.0306
rfemur -18.3604 1.97094 23.8892
rtibia 20.5441
rfoot 0.0858476 -4.53866
rtoes 8.05021
lfemur 0.122765 -0.62585 -23.671
ltibia 41.3982
lfoot 12.3491 -19.464
ltoes -14.2143
101
root 12.9181 17.6569 -11.9249 0.828352 5.54439 1.59374
lowerback 5.97717 -2.45058 -2.31908
upperback -0.00300534 -3.33088 2.9057
thorax -3.04661 -1.60553 4.5899
lowerneck -16.9309 -3.84101 -9.86985
upperneck 23.1343 -3.99325 5.31453
head 10.54 -2.07804 2.99217
rclavicle 2.23633e-015 -2.70347e-014
rhumerus -35.7253 -21.6786 -73.9734
rradius 24.1172
rwrist 13.6036
rhand -12.3366 13.1454
rfingers 7.12502
rthumb 13.7326 -16.3815
lclavicle 2.23633e-015 -2.70347e-014
lhumerus -24.3837 9.66488 86.6302
lradius 28.803
lwrist -9.90682
lhand -13.7165 26.1943
lfingers 7.12502
lthumb 12.4024 55.8064
rfemur -17.1724 2.04792 24.7682
rtibia 19.3578
rfoot -0.749321 -4.68902
rtoes 11.8081
lfemur -1.40615 -0.334297 -22.5269
ltibia 43.6944
lfoot 15.262 -20.3839
ltoes -9.95118
102
root 12.9153 17.6886 -11.7869 0.663965 5.61852 0.929215
lowerback 6.09418 -2.39443 -1.65178
upperback 0.00688416 -3.20327 3.08418
thorax -3.14024 -1.54857 4.39611
lowerneck -16.4872 -3.89014 -10.0655
upperneck 22.9016 -4.09245 5.48715
head 10.3877 -2.12338 3.07318
rclavicle -1.88845e-015 -7.95139e-015
rhumerus -35.6001 -20.8322 -74.4164
rradius 24.2312
rwrist 13.0892
rhand -13.0455 14.6402
rfingers 7.12502
rthumb 13.0493 -14.9317
lclavicle -1.88845e-015 -7.95139e-015
lhumerus -24.7468 9.41025 86.76
lradius 28.6811
lwrist -9.84999
lhand -13.8386 26.3676
lfingers 7.12502
lthumb 12.2847 55.9868
rfemur -15.884 1.73509 25.6093
rtibia 18.1742
rfoot -0.101364 -4.07483
rtoes 8.58301
lfemur -3.02256 0.137447 -21.4314
ltibia 46.1551
lfoot 18.6092 -21.1886
ltoes -9.12834
103
root 12.9142 17.721 -11.648 0.523 5.54624 0.461211
lowerback 6.23557 -2.26614 -1.17179
upperback 0.0296182 -2.99349 3.19382
thorax -3.2328 -1.44884 4.22976
lowerneck -16.4985 -3.98467 -10.1739
upperneck 22.882 -4.2397 5.66576
head 10.4024 -2.17894 3.13446
rclavicle -1.63997e-014 7.15625e-015
rhumerus -35.4287 -20.2406 -74.7225
rradius 24.4186
rwrist 12.816
rhand -13.4025 14.2908
rfingers 7.12502
rthumb 12.7052 -15.3027
lclavicle -1.63997e-014 7.15625e-015
lhumerus -24.9229 8.94665 86.8974
lradius 28.423
lwrist -9.95372
lhand -13.6623 25.0653
lfingers 7.12502
lthumb 12.4547 54.6742
rfemur -14.7515 1.5697 26.2181
rtibia 17.1373
rfoot -0.0873225 -3.81873
rtoes 8.09878
lfemur -4.55726 0.609264 -20.6113
ltibia 48.5816
lfoot 21.0407 -21.6195
ltoes -9.94128
